<svg width="50" height="100" viewBox="0 0 50 100" fill="none" xmlns="http://www.w3.org/2000/svg">
<path class="change-fill" d="M40.6923 0H9.30769C6.83914 0 4.47169 1.08649 2.72616 3.02046C0.98063 4.95443 0 7.57746 0 10.3125V89.6875C0 91.0418 0.240751 92.3828 0.708507 93.6339C1.17626 94.8851 1.86186 96.0219 2.72616 96.9795C3.59046 97.9371 4.61653 98.6968 5.74579 99.215C6.87505 99.7333 8.08539 100 9.30769 100H40.6923C41.9146 100 43.1249 99.7333 44.2542 99.215C45.3835 98.6968 46.4095 97.9371 47.2738 96.9795C48.1381 96.0219 48.8237 94.8851 49.2915 93.6339C49.7593 92.3828 50 91.0418 50 89.6875V10.3125C50 8.95824 49.7593 7.61725 49.2915 6.36608C48.8237 5.11491 48.1381 3.97807 47.2738 3.02046C46.4095 2.06286 45.3835 1.30324 44.2542 0.784992C43.1249 0.26674 41.9146 0 40.6923 0ZM46.1539 89.6875C46.1539 90.4821 46.0126 91.269 45.7381 92.0032C45.4636 92.7373 45.0613 93.4044 44.5542 93.9663C44.047 94.5282 43.445 94.9739 42.7824 95.278C42.1197 95.5821 41.4095 95.7386 40.6923 95.7386H9.30769C7.8592 95.7386 6.47004 95.1011 5.4458 93.9663C4.42156 92.8315 3.84615 91.2924 3.84615 89.6875V10.3125C3.84615 8.70764 4.42156 7.16851 5.4458 6.0337C6.47004 4.89889 7.8592 4.26136 9.30769 4.26136H11.5385C11.5385 5.39155 11.9437 6.47544 12.665 7.2746C13.3863 8.07376 14.3646 8.52273 15.3846 8.52273H34.6154C35.6354 8.52273 36.6137 8.07376 37.335 7.2746C38.0563 6.47544 38.4615 5.39155 38.4615 4.26136H40.6923C41.4095 4.26136 42.1197 4.41788 42.7824 4.72198C43.445 5.02608 44.047 5.4718 44.5542 6.0337C45.0613 6.5956 45.4636 7.26267 45.7381 7.99683C46.0126 8.73099 46.1539 9.51785 46.1539 10.3125V89.6875Z" fill="#A3AECC"/>
</svg>
