<svg width="209" height="45" viewBox="0 0 209 45" fill="none" xmlns="http://www.w3.org/2000/svg">
<path d="M48.9244 33.4003C50.932 23.5492 42.1107 20.5764 36.5745 18.9443C32.681 17.8368 30.1259 16.8459 30.6125 14.0479C31.0992 11.7163 33.1677 10.2008 36.4529 10.2008C39.9205 10.2008 43.5099 11.3666 46.2475 13.057C46.7951 13.4067 47.2818 13.3484 47.7076 12.8821L51.9662 7.63601C52.392 7.1114 52.3312 6.58679 51.7837 6.23705C47.586 3.26425 43.3274 1.807 37.5479 1.807C29.335 1.807 22.5821 4.95466 21.122 13.1153C19.662 21.3925 25.5631 25.2396 32.0726 27.0466C36.5745 28.2707 39.6772 29.4365 39.1905 32.351C38.7038 35.0907 35.6011 36.4313 32.0726 36.4313C28.3008 36.4313 25.0764 35.0907 21.7304 32.5842C21.1829 32.1762 20.6353 32.1762 20.2095 32.7008L15.8292 37.8886C15.4034 38.4132 15.4642 38.9378 15.9509 39.3459C20.0878 42.8433 24.6506 45 31.0384 45C38.9472 45 46.9776 42.4935 48.9244 33.4003Z" fill="#FF823B"/>
<path d="M54.8017 24.307L53.22 32.7591C51.8208 40.3368 57.3569 45 65.3265 45C70.6193 45 74.7561 43.601 78.0413 41.4443C78.5889 41.1529 78.6497 40.6282 78.4063 40.0453L75.912 35.557C75.6079 34.9158 75.1212 34.8575 74.5128 35.2655C72.0793 36.6645 69.2809 37.5971 66.604 37.5971C63.258 37.5971 61.798 36.0816 62.4063 32.9922L62.5888 32.1762H79.5014C80.1098 32.1762 80.4748 31.8847 80.5965 31.3018L81.6307 25.6477C83.2733 17.079 77.7371 13.1153 69.9501 13.1153C62.5888 13.1153 56.2618 16.671 54.8017 24.307ZM72.566 26.3471H63.6839L63.9881 24.7733C64.5356 22.0337 66.5432 20.5181 69.1592 20.5181C72.2618 20.5181 73.2961 22.5583 72.8702 24.8899L72.566 26.3471Z" fill="#FF823B"/>
<path d="M91.7633 44.2422C92.3717 44.2422 92.7367 43.8925 92.8584 43.3096L96.8127 21.8005C97.847 21.3925 99.1854 21.101 100.767 21.101C102.045 21.101 103.261 21.2176 104.296 21.3925C104.965 21.4508 105.452 21.1593 105.512 20.5181L106.607 14.8057C106.729 14.2228 106.425 13.7565 105.756 13.6399C103.991 13.2902 102.349 13.1153 100.706 13.1153C96.8736 13.1153 92.98 13.9896 89.4515 15.5635C88.9648 15.7966 88.6606 16.1464 88.539 16.671L83.7329 43.1347C83.6112 43.7759 83.9762 44.2422 84.7063 44.2422H91.7633Z" fill="#FF823B"/>
<path d="M121.779 44.2422C122.326 44.2422 122.752 44.0091 122.995 43.4845L138.022 15.0971C138.387 14.3977 138.083 13.9313 137.292 13.9313H129.748C129.14 13.9313 128.714 14.2228 128.471 14.6891L122.691 27.3381C121.596 29.8446 120.501 32.5259 119.406 35.0907H119.284C119.102 32.4676 118.798 29.3782 118.554 27.3964L117.094 14.864C117.033 14.2228 116.607 13.9313 115.999 13.9313H108.942C108.212 13.9313 107.847 14.3394 107.908 14.9806L112.592 43.3096C112.653 43.9508 113.079 44.2422 113.748 44.2422H121.779Z" fill="#FF823B"/>
<path d="M144.578 44.2422C145.247 44.2422 145.612 43.8925 145.734 43.3096L150.966 14.9806C151.088 14.3394 150.723 13.9313 149.992 13.9313H142.935C142.327 13.9313 141.901 14.2228 141.84 14.8057L136.608 43.1347C136.487 43.7759 136.852 44.2422 137.521 44.2422H144.578ZM152.973 5.47927C153.582 2.33161 151.635 0 148.532 0C145.734 0 143.665 1.69041 143.179 4.25518C142.57 7.28627 144.517 9.67617 147.62 9.67617C150.357 9.67617 152.487 7.86917 152.973 5.47927Z" fill="#FF823B"/>
<path d="M175.654 42.4935C176.323 42.1438 176.445 41.6775 176.141 41.0946L173.768 36.0816C173.464 35.4987 172.916 35.3821 172.308 35.7319C170.361 36.8394 168.293 37.4223 166.589 37.4223C163.608 37.4223 161.966 35.6153 162.696 32.0596L163.974 25.1813C164.521 22.3251 166.468 20.693 169.692 20.693C171.396 20.693 173.038 21.1593 174.377 21.9171C174.985 22.2668 175.411 22.2085 175.837 21.7422L179.426 17.3122C179.791 16.7876 179.73 16.263 179.243 15.9132C176.81 14.2228 173.829 13.1153 169.996 13.1153C162.27 13.1153 156.186 16.9041 154.848 24.2487L153.51 31.4767C151.989 39.7539 156.977 45 165.19 45C168.84 45 172.369 44.2422 175.654 42.4935Z" fill="#FF823B"/>
<path d="M181.881 24.307L180.3 32.7591C178.9 40.3368 184.436 45 192.406 45C197.699 45 201.836 43.601 205.121 41.4443C205.668 41.1529 205.729 40.6282 205.486 40.0453L202.992 35.557C202.687 34.9158 202.201 34.8575 201.592 35.2655C199.159 36.6645 196.36 37.5971 193.684 37.5971C190.338 37.5971 188.878 36.0816 189.486 32.9922L189.668 32.1762H206.581C207.189 32.1762 207.554 31.8847 207.676 31.3018L208.71 25.6477C210.353 17.079 204.817 13.1153 197.03 13.1153C189.668 13.1153 183.341 16.671 181.881 24.307ZM199.646 26.3471H190.763L191.068 24.7733C191.615 22.0337 193.623 20.5181 196.239 20.5181C199.341 20.5181 200.376 22.5583 199.95 24.8899L199.646 26.3471Z" fill="#FF823B"/>
<path fill-rule="evenodd" clip-rule="evenodd" d="M11.9472 0C15.0499 0 16.9967 2.33161 16.3883 5.47927C15.9016 7.86917 13.7723 9.67617 11.0347 9.67617C7.93203 9.67617 5.98526 7.28627 6.59363 4.25518C7.08032 1.69041 9.14876 0 11.9472 0Z" fill="white"/>
<path d="M7.99287 44.2422C8.66207 44.2422 9.02709 43.8925 9.14876 43.3096L14.3807 14.9806C14.5024 14.3394 14.1374 13.9313 13.4073 13.9313H6.35028C5.74191 13.9313 5.31606 14.2228 5.25522 14.8057L0.0232749 43.1347C-0.0983983 43.7759 0.266621 44.2422 0.935824 44.2422H7.99287Z" fill="white"/>
</svg>
