<svg width="80" height="19" viewBox="0 0 80 19" fill="none" xmlns="http://www.w3.org/2000/svg">
<path d="M3.266 18C3.519 18 3.657 17.862 3.703 17.632L5.681 6.454C5.727 6.201 5.589 6.04 5.313 6.04H2.645C2.415 6.04 2.254 6.155 2.231 6.385L0.253 17.563C0.207 17.816 0.345 18 0.598 18H3.266ZM6.44 2.705C6.67 1.463 5.934 0.543 4.761 0.543C3.703 0.543 2.921 1.21 2.737 2.222C2.507 3.418 3.243 4.361 4.416 4.361C5.451 4.361 6.256 3.648 6.44 2.705Z" fill="white"/>
<path d="M18.7407 13.722C19.4997 9.835 16.1647 8.662 14.0717 8.018C12.5997 7.581 11.6337 7.19 11.8177 6.086C12.0017 5.166 12.7837 4.568 14.0257 4.568C15.3367 4.568 16.6937 5.028 17.7287 5.695C17.9357 5.833 18.1197 5.81 18.2807 5.626L19.8907 3.556C20.0517 3.349 20.0287 3.142 19.8217 3.004C18.2347 1.831 16.6247 1.256 14.4397 1.256C11.3347 1.256 8.78169 2.498 8.22969 5.718C7.67769 8.984 9.90869 10.502 12.3697 11.215C14.0717 11.698 15.2447 12.158 15.0607 13.308C14.8767 14.389 13.7037 14.918 12.3697 14.918C10.9437 14.918 9.72469 14.389 8.45969 13.4C8.25269 13.239 8.04569 13.239 7.88469 13.446L6.22869 15.493C6.06769 15.7 6.09069 15.907 6.27469 16.068C7.83869 17.448 9.56369 18.299 11.9787 18.299C14.9687 18.299 18.0047 17.31 18.7407 13.722ZM20.9627 10.134L20.3647 13.469C19.8357 16.459 21.9287 18.299 24.9417 18.299C26.9427 18.299 28.5067 17.747 29.7487 16.896C29.9557 16.781 29.9787 16.574 29.8867 16.344L28.9437 14.573C28.8287 14.32 28.6447 14.297 28.4147 14.458C27.4947 15.01 26.4367 15.378 25.4247 15.378C24.1597 15.378 23.6077 14.78 23.8377 13.561L23.9067 13.239H30.3007C30.5307 13.239 30.6687 13.124 30.7147 12.894L31.1057 10.663C31.7267 7.282 29.6337 5.718 26.6897 5.718C23.9067 5.718 21.5147 7.121 20.9627 10.134ZM27.6787 10.939H24.3207L24.4357 10.318C24.6427 9.237 25.4017 8.639 26.3907 8.639C27.5637 8.639 27.9547 9.444 27.7937 10.364L27.6787 10.939ZM34.9365 18C35.1665 18 35.3045 17.862 35.3505 17.632L36.8455 9.145C37.2365 8.984 37.7425 8.869 38.3405 8.869C38.8235 8.869 39.2835 8.915 39.6745 8.984C39.9275 9.007 40.1115 8.892 40.1345 8.639L40.5485 6.385C40.5945 6.155 40.4795 5.971 40.2265 5.925C39.5595 5.787 38.9385 5.718 38.3175 5.718C36.8685 5.718 35.3965 6.063 34.0625 6.684C33.8785 6.776 33.7635 6.914 33.7175 7.121L31.9005 17.563C31.8545 17.816 31.9925 18 32.2685 18H34.9365ZM46.2841 18C46.4911 18 46.6521 17.908 46.7441 17.701L52.4251 6.5C52.5631 6.224 52.4481 6.04 52.1491 6.04H49.2971C49.0671 6.04 48.9061 6.155 48.8141 6.339L46.6291 11.33C46.2151 12.319 45.8011 13.377 45.3871 14.389H45.3411C45.2721 13.354 45.1571 12.135 45.0651 11.353L44.5131 6.408C44.4901 6.155 44.3291 6.04 44.0991 6.04H41.4311C41.1551 6.04 41.0171 6.201 41.0401 6.454L42.8111 17.632C42.8341 17.885 42.9951 18 43.2481 18H46.2841ZM54.9037 18C55.1567 18 55.2947 17.862 55.3407 17.632L57.3187 6.454C57.3647 6.201 57.2267 6.04 56.9507 6.04H54.2827C54.0527 6.04 53.8917 6.155 53.8687 6.385L51.8907 17.563C51.8447 17.816 51.9827 18 52.2357 18H54.9037ZM58.0777 2.705C58.3077 1.463 57.5717 0.543 56.3987 0.543C55.3407 0.543 54.5587 1.21 54.3747 2.222C54.1447 3.418 54.8807 4.361 56.0537 4.361C57.0887 4.361 57.8937 3.648 58.0777 2.705ZM66.6524 17.31C66.9054 17.172 66.9514 16.988 66.8364 16.758L65.9394 14.78C65.8244 14.55 65.6174 14.504 65.3874 14.642C64.6514 15.079 63.8694 15.309 63.2254 15.309C62.0984 15.309 61.4774 14.596 61.7534 13.193L62.2364 10.479C62.4434 9.352 63.1794 8.708 64.3984 8.708C65.0424 8.708 65.6634 8.892 66.1694 9.191C66.3994 9.329 66.5604 9.306 66.7214 9.122L68.0784 7.374C68.2164 7.167 68.1934 6.96 68.0094 6.822C67.0894 6.155 65.9624 5.718 64.5134 5.718C61.5924 5.718 59.2924 7.213 58.7864 10.111L58.2804 12.963C57.7054 16.229 59.5914 18.299 62.6964 18.299C64.0764 18.299 65.4104 18 66.6524 17.31ZM69.0066 10.134L68.4086 13.469C67.8796 16.459 69.9726 18.299 72.9856 18.299C74.9866 18.299 76.5506 17.747 77.7926 16.896C77.9996 16.781 78.0226 16.574 77.9306 16.344L76.9876 14.573C76.8726 14.32 76.6886 14.297 76.4586 14.458C75.5386 15.01 74.4806 15.378 73.4686 15.378C72.2036 15.378 71.6516 14.78 71.8816 13.561L71.9506 13.239H78.3446C78.5746 13.239 78.7126 13.124 78.7586 12.894L79.1496 10.663C79.7706 7.282 77.6776 5.718 74.7336 5.718C71.9506 5.718 69.5586 7.121 69.0066 10.134ZM75.7226 10.939H72.3646L72.4796 10.318C72.6866 9.237 73.4456 8.639 74.4346 8.639C75.6076 8.639 75.9986 9.444 75.8376 10.364L75.7226 10.939Z" fill="#FF823B"/>
</svg>
