<svg width="119" height="27" viewBox="0 0 119 27" fill="none" xmlns="http://www.w3.org/2000/svg">
<path d="M4.55091 26.5453C4.93194 26.5453 5.13977 26.3355 5.20905 25.9858L8.18801 8.98834C8.25729 8.60363 8.04945 8.35881 7.63378 8.35881H3.61566C3.26927 8.35881 3.02679 8.53368 2.99216 8.88342L0.0132001 25.8808C-0.056078 26.2655 0.151756 26.5453 0.532785 26.5453H4.55091ZM9.33109 3.28756C9.67748 1.39896 8.56904 0 6.80245 0C5.20905 0 4.03133 1.01425 3.75421 2.55311C3.40782 4.37176 4.51627 5.8057 6.28286 5.8057C7.84162 5.8057 9.05398 4.7215 9.33109 3.28756Z" fill="#CFD5E6"/>
<path d="M27.8565 20.0402C28.9996 14.1295 23.9769 12.3459 20.8248 11.3666C18.6079 10.7021 17.153 10.1075 17.4301 8.42876C17.7072 7.02979 18.885 6.12047 20.7555 6.12047C22.7299 6.12047 24.7736 6.81995 26.3324 7.8342C26.6441 8.04404 26.9212 8.00907 27.1637 7.72928L29.5884 4.58161C29.8309 4.26684 29.7963 3.95207 29.4845 3.74223C27.0944 1.95855 24.6697 1.0842 21.379 1.0842C16.7027 1.0842 12.8578 2.9728 12.0264 7.86917C11.1951 12.8355 14.5551 15.1438 18.2615 16.228C20.8248 16.9624 22.5913 17.6619 22.3142 19.4106C22.0371 21.0544 20.2705 21.8588 18.2615 21.8588C16.1138 21.8588 14.278 21.0544 12.3728 19.5505C12.0611 19.3057 11.7493 19.3057 11.5069 19.6205L9.01285 22.7332C8.77038 23.0479 8.80501 23.3627 9.08213 23.6075C11.4376 25.706 14.0355 27 17.6726 27C22.1757 27 26.748 25.4961 27.8565 20.0402Z" fill="#CFD5E6"/>
<path d="M31.2029 14.5842L30.3023 19.6554C29.5056 24.2021 32.6578 27 37.1955 27C40.2091 27 42.5645 26.1606 44.435 24.8666C44.7468 24.6917 44.7814 24.3769 44.6429 24.0272L43.2227 21.3342C43.0495 20.9495 42.7724 20.9145 42.426 21.1593C41.0404 21.9987 39.447 22.5583 37.9229 22.5583C36.0177 22.5583 35.1864 21.649 35.5328 19.7953L35.6367 19.3057H45.2664C45.6128 19.3057 45.8206 19.1308 45.8899 18.7811L46.4787 15.3886C47.414 10.2474 44.2618 7.86917 39.828 7.86917C35.6367 7.86917 32.0343 10.0026 31.2029 14.5842ZM41.3175 15.8083H36.2602L36.4334 14.864C36.7452 13.2202 37.8883 12.3109 39.3777 12.3109C41.1443 12.3109 41.7332 13.535 41.4907 14.9339L41.3175 15.8083Z" fill="#CFD5E6"/>
<path d="M52.248 26.5453C52.5944 26.5453 52.8022 26.3355 52.8715 25.9858L55.1231 13.0803C55.7119 12.8355 56.474 12.6606 57.3746 12.6606C58.102 12.6606 58.7948 12.7306 59.3837 12.8355C59.7647 12.8705 60.0418 12.6956 60.0764 12.3109L60.6999 8.88342C60.7692 8.53368 60.596 8.25389 60.215 8.18394C59.2105 7.97409 58.2752 7.86917 57.34 7.86917C55.1577 7.86917 52.9408 8.39378 50.9317 9.33808C50.6546 9.47798 50.4814 9.68782 50.4122 10.0026L47.6757 25.8808C47.6064 26.2655 47.8142 26.5453 48.2299 26.5453H52.248Z" fill="#CFD5E6"/>
<path d="M69.3381 26.5453C69.6498 26.5453 69.8923 26.4054 70.0308 26.0907L78.5867 9.05829C78.7945 8.6386 78.6213 8.35881 78.171 8.35881H73.8758C73.5294 8.35881 73.2869 8.53368 73.1483 8.81347L69.8576 16.4029C69.2341 17.9067 68.6106 19.5155 67.9871 21.0544H67.9178C67.8139 19.4806 67.6407 17.6269 67.5022 16.4378L66.6708 8.91839C66.6362 8.53368 66.3937 8.35881 66.0473 8.35881H62.0292C61.6135 8.35881 61.4057 8.60363 61.4403 8.98834L64.1076 25.9858C64.1422 26.3705 64.3847 26.5453 64.7657 26.5453H69.3381Z" fill="#CFD5E6"/>
<path d="M82.3196 26.5453C82.7006 26.5453 82.9084 26.3355 82.9777 25.9858L85.9567 8.98834C86.0259 8.60363 85.8181 8.35881 85.4024 8.35881H81.3843C81.0379 8.35881 80.7954 8.53368 80.7608 8.88342L77.7818 25.8808C77.7126 26.2655 77.9204 26.5453 78.3014 26.5453H82.3196ZM87.0997 3.28756C87.4461 1.39896 86.3377 0 84.5711 0C82.9777 0 81.8 1.01425 81.5229 2.55311C81.1765 4.37176 82.2849 5.8057 84.0515 5.8057C85.6103 5.8057 86.8226 4.7215 87.0997 3.28756Z" fill="#CFD5E6"/>
<path d="M100.014 25.4961C100.395 25.2863 100.464 25.0065 100.291 24.6567L98.9398 21.649C98.7666 21.2992 98.4548 21.2293 98.1085 21.4391C97 22.1036 95.8223 22.4534 94.8524 22.4534C93.1551 22.4534 92.2198 21.3692 92.6355 19.2358L93.3629 15.1088C93.6747 13.3951 94.7831 12.4158 96.619 12.4158C97.5889 12.4158 98.5241 12.6956 99.2862 13.1503C99.6326 13.3601 99.875 13.3251 100.118 13.0453L102.161 10.3873C102.369 10.0725 102.334 9.75777 102.057 9.54793C100.672 8.53368 98.9744 7.86917 96.7922 7.86917C92.393 7.86917 88.9291 10.1425 88.1671 14.5492L87.405 18.886C86.539 23.8523 89.3794 27 94.0557 27C96.134 27 98.1431 26.5453 100.014 25.4961Z" fill="#CFD5E6"/>
<path d="M103.559 14.5842L102.659 19.6554C101.862 24.2021 105.014 27 109.552 27C112.565 27 114.921 26.1606 116.791 24.8666C117.103 24.6917 117.138 24.3769 116.999 24.0272L115.579 21.3342C115.406 20.9495 115.129 20.9145 114.782 21.1593C113.397 21.9987 111.803 22.5583 110.279 22.5583C108.374 22.5583 107.543 21.649 107.889 19.7953L107.993 19.3057H117.623C117.969 19.3057 118.177 19.1308 118.246 18.7811L118.835 15.3886C119.77 10.2474 116.618 7.86917 112.184 7.86917C107.993 7.86917 104.391 10.0026 103.559 14.5842ZM113.674 15.8083H108.617L108.79 14.864C109.101 13.2202 110.245 12.3109 111.734 12.3109C113.501 12.3109 114.089 13.535 113.847 14.9339L113.674 15.8083Z" fill="#CFD5E6"/>
</svg>
