<svg width="24" height="24" viewBox="0 0 24 24" fill="none" xmlns="http://www.w3.org/2000/svg">
<path d="M23.6352 21.8602L17.7188 15.9194C19.24 14.1735 20.0735 11.9768 20.0735 9.68999C20.0735 4.34701 15.571 0 10.0368 0C4.50267 0 0.000122082 4.34701 0.000122082 9.68999C0.000122082 15.033 4.50267 19.38 10.0368 19.38C12.1144 19.38 14.0943 18.775 15.787 17.6265L21.7483 23.6124C21.9975 23.8622 22.3326 24 22.6918 24C23.0317 24 23.3542 23.8749 23.599 23.6474C24.1192 23.1641 24.1357 22.3628 23.6352 21.8602ZM10.0368 2.52782C14.1274 2.52782 17.4552 5.74069 17.4552 9.68999C17.4552 13.6393 14.1274 16.8522 10.0368 16.8522C5.94621 16.8522 2.61839 13.6393 2.61839 9.68999C2.61839 5.74069 5.94621 2.52782 10.0368 2.52782Z" fill="#CFD5E6"/>
</svg>
